<?xml version="1.0" encoding="UTF-8"?>
<svg xmlns="http://www.w3.org/2000/svg" viewBox="0 0 880 300" width="880" height="300">
  <defs>
    <style type="text/css"><![CDATA[
      .bg { fill: #ffffff; }
      .panel-line { stroke: #e2e8f0; stroke-width: 1; }
      .ptitle { font-family: sans-serif; font-size: 13px; font-weight: 700; fill: #0f172a; }
      .psub { font-family: sans-serif; font-size: 10px; fill: #64748b; }
      .edge { fill: none; stroke: #cbd5e1; stroke-width: 2; stroke-linecap: round; }
      .node-fill { fill: #f1f5f9; stroke: #64748b; stroke-width: 2; }
      .wtxt { font-family: sans-serif; font-size: 10px; font-weight: 700; fill: #334155; }
      .wtxt-sm { font-family: sans-serif; font-size: 8px; font-weight: 600; fill: #64748b; }
      .edge-path { fill: none; stroke: #d97706; stroke-width: 3.25; stroke-linecap: round; }
      .node-path-ring { fill: none; stroke: #d97706; stroke-width: 2.75; }
      .edge-dim { fill: none; stroke: #e2e8f0; stroke-width: 1.75; stroke-linecap: round; }
      .node-dim { fill: #f8fafc; stroke: #e2e8f0; stroke-width: 2; }
      .edge-strong { fill: none; stroke: #34d399; stroke-width: 2.5; stroke-linecap: round; }
      .node-strong { fill: #d1fae5; stroke: #059669; stroke-width: 2; }
      .wtxt-strong { font-family: sans-serif; font-size: 10px; font-weight: 700; fill: #065f46; }
    ]]></style>
  </defs>
  <rect class="bg" width="880" height="300"/>

  <line class="panel-line" x1="293" y1="48" x2="293" y2="288"/>
  <line class="panel-line" x1="587" y1="48" x2="587" y2="288"/>

  <!-- Panel 1: Before -->
  <text x="146" y="22" text-anchor="middle" class="ptitle">Before recall</text>
  <text x="146" y="36" text-anchor="middle" class="psub">Scattered memories; many possible routes</text>

  <path class="edge" d="M 68.5 172.1 L 89.5 163.9"/>
  <path class="edge" d="M 129.2 166.7 L 155.8 181.3"/>
  <path class="edge" d="M 194.5 181.8 L 212.5 172.2"/>
  <path class="edge" d="M 234.4 140.1 L 239.6 93.9"/>
  <path class="edge" d="M 43.8 158.4 L 36.2 119.6"/>
  <path class="edge" d="M 104.1 177.2 L 87.9 234.8"/>
  <path class="edge" d="M 166.6 212.4 L 160.4 227.6"/>
  <path class="edge" d="M 244.2 143.7 L 255.8 126.3"/>

  <circle class="node-fill" cx="48" cy="180" r="21"/>
  <text x="48" y="183" text-anchor="middle" class="wtxt">0.11</text>
  <circle class="node-fill" cx="110" cy="156" r="21"/>
  <text x="110" y="159" text-anchor="middle" class="wtxt">0.10</text>
  <circle class="node-fill" cx="175" cy="192" r="21"/>
  <text x="175" y="195" text-anchor="middle" class="wtxt">0.12</text>
  <circle class="node-fill" cx="232" cy="162" r="21"/>
  <text x="232" y="165" text-anchor="middle" class="wtxt">0.09</text>
  <circle class="node-fill" cx="242" cy="72" r="21"/>
  <text x="242" y="75" text-anchor="middle" class="wtxt">0.08</text>
  <circle class="node-fill" cx="32" cy="98" r="21"/>
  <text x="32" y="101" text-anchor="middle" class="wtxt">0.07</text>
  <circle class="node-fill" cx="82" cy="256" r="21"/>
  <text x="82" y="259" text-anchor="middle" class="wtxt">0.11</text>
  <circle class="node-fill" cx="152" cy="248" r="21"/>
  <text x="152" y="251" text-anchor="middle" class="wtxt">0.10</text>
  <circle class="node-fill" cx="268" cy="108" r="21"/>
  <text x="268" y="111" text-anchor="middle" class="wtxt">0.13</text>

  <!-- Panel 2: Recall -->
  <text x="439" y="22" text-anchor="middle" class="ptitle">Recall highlights path</text>
  <text x="439" y="36" text-anchor="middle" class="psub">One memory branch wins this round</text>

  <path class="edge-dim" d="M 336.8 158.4 L 329.2 119.6"/>
  <path class="edge-dim" d="M 397.1 177.2 L 380.9 234.8"/>
  <path class="edge-dim" d="M 459.6 212.4 L 453.4 227.6"/>
  <path class="edge-dim" d="M 537.2 143.7 L 548.8 126.3"/>

  <path class="edge-path" d="M 361.5 172.1 L 382.5 163.9"/>
  <path class="edge-path" d="M 422.2 166.7 L 448.8 181.3"/>
  <path class="edge-path" d="M 487.5 181.8 L 505.5 172.2"/>
  <path class="edge-path" d="M 527.4 140.1 L 532.6 93.9"/>

  <circle class="node-dim" cx="325" cy="98" r="21"/>
  <text x="325" y="101" text-anchor="middle" class="wtxt-sm">0.07</text>
  <circle class="node-dim" cx="375" cy="256" r="21"/>
  <text x="375" y="259" text-anchor="middle" class="wtxt-sm">0.11</text>
  <circle class="node-dim" cx="445" cy="248" r="21"/>
  <text x="445" y="251" text-anchor="middle" class="wtxt-sm">0.10</text>
  <circle class="node-dim" cx="561" cy="108" r="21"/>
  <text x="561" y="111" text-anchor="middle" class="wtxt-sm">0.13</text>

  <circle class="node-fill" cx="341" cy="180" r="21"/>
  <circle class="node-path-ring" cx="341" cy="180" r="25"/>
  <text x="341" y="183" text-anchor="middle" class="wtxt">0.11</text>
  <circle class="node-fill" cx="403" cy="156" r="21"/>
  <circle class="node-path-ring" cx="403" cy="156" r="25"/>
  <text x="403" y="159" text-anchor="middle" class="wtxt">0.10</text>
  <circle class="node-fill" cx="468" cy="192" r="21"/>
  <circle class="node-path-ring" cx="468" cy="192" r="25"/>
  <text x="468" y="195" text-anchor="middle" class="wtxt">0.12</text>
  <circle class="node-fill" cx="525" cy="162" r="21"/>
  <circle class="node-path-ring" cx="525" cy="162" r="25"/>
  <text x="525" y="165" text-anchor="middle" class="wtxt">0.09</text>
  <circle class="node-fill" cx="535" cy="72" r="21"/>
  <circle class="node-path-ring" cx="535" cy="72" r="25"/>
  <text x="535" y="75" text-anchor="middle" class="wtxt">0.08</text>

  <!-- Panel 3: After -->
  <text x="732" y="22" text-anchor="middle" class="ptitle">After loop</text>
  <text x="732" y="36" text-anchor="middle" class="psub">Reinforced trace; off-path nodes stay weak</text>

  <path class="edge" d="M 629.8 158.4 L 622.2 119.6"/>
  <path class="edge" d="M 690.1 177.2 L 673.9 234.8"/>
  <path class="edge" d="M 752.6 212.4 L 746.4 227.6"/>
  <path class="edge" d="M 830.2 143.7 L 841.8 126.3"/>

  <path class="edge-strong" d="M 654.5 172.1 L 675.5 163.9"/>
  <path class="edge-strong" d="M 715.2 166.7 L 741.8 181.3"/>
  <path class="edge-strong" d="M 780.5 181.8 L 798.5 172.2"/>
  <path class="edge-strong" d="M 820.4 140.1 L 825.6 93.9"/>

  <circle class="node-fill" cx="618" cy="98" r="21"/>
  <text x="618" y="101" text-anchor="middle" class="wtxt">0.07</text>
  <circle class="node-fill" cx="668" cy="256" r="21"/>
  <text x="668" y="259" text-anchor="middle" class="wtxt">0.11</text>
  <circle class="node-fill" cx="738" cy="248" r="21"/>
  <text x="738" y="251" text-anchor="middle" class="wtxt">0.10</text>
  <circle class="node-fill" cx="854" cy="108" r="21"/>
  <text x="854" y="111" text-anchor="middle" class="wtxt">0.13</text>

  <circle class="node-strong" cx="634" cy="180" r="21"/>
  <text x="634" y="183" text-anchor="middle" class="wtxt-strong">0.88</text>
  <circle class="node-strong" cx="696" cy="156" r="21"/>
  <text x="696" y="159" text-anchor="middle" class="wtxt-strong">0.90</text>
  <circle class="node-strong" cx="761" cy="192" r="21"/>
  <text x="761" y="195" text-anchor="middle" class="wtxt-strong">0.85</text>
  <circle class="node-strong" cx="818" cy="162" r="21"/>
  <text x="818" y="165" text-anchor="middle" class="wtxt-strong">0.87</text>
  <circle class="node-strong" cx="828" cy="72" r="21"/>
  <text x="828" y="75" text-anchor="middle" class="wtxt-strong">0.83</text>
</svg>
